<svg xmlns="http://www.w3.org/2000/svg" xmlns:xlink="http://www.w3.org/1999/xlink" width="794" zoomAndPan="magnify" viewBox="0 0 595.5 842.249979" height="1123" preserveAspectRatio="xMidYMid meet" version="1.0"><defs><g/><clipPath id="834745ed8e"><path d="M 0.015625 0 L 594.984375 0 L 594.984375 841.5 L 0.015625 841.5 Z M 0.015625 0 " clip-rule="nonzero"/></clipPath><clipPath id="30bcdbe564"><path d="M 0.0195312 0 L 557.730469 0 L 557.730469 841.453125 L 0.0195312 841.453125 Z M 0.0195312 0 " clip-rule="nonzero"/></clipPath><clipPath id="51c9728539"><path d="M 579 777 L 594.984375 777 L 594.984375 841.5 L 579 841.5 Z M 579 777 " clip-rule="nonzero"/></clipPath><clipPath id="45254950c5"><path d="M 1 0.148438 L 13 0.148438 L 13 3 L 1 3 Z M 1 0.148438 " clip-rule="nonzero"/></clipPath><clipPath id="df499168bc"><rect x="0" width="16" y="0" height="65"/></clipPath><clipPath id="71b835aadc"><rect x="0" width="595" y="0" height="842"/></clipPath></defs><g clip-path="url(#834745ed8e)"><g transform="matrix(1, 0, 0, 1, -0.000000000000000002, 0)"><g clip-path="url(#71b835aadc)"><g clip-path="url(#30bcdbe564)"><path fill="#131b81" d="M 143.644531 392.640625 C 138.410156 400.765625 135.339844 410.339844 135.339844 420.632812 C 135.339844 430.929688 138.410156 440.683594 143.644531 448.628906 C 147.621094 454.769531 152.855469 460.007812 158.996094 463.980469 L 158.996094 377.289062 C 152.855469 381.261719 147.621094 386.5 143.644531 392.640625 M 547.488281 792.507812 L 216.792969 792.507812 C 214.804688 792.507812 213 791.242188 212.277344 789.617188 L 0.964844 423.523438 C 0.421875 422.621094 0.0625 421.71875 0.0625 420.632812 C 0.0625 419.550781 0.421875 418.464844 0.964844 417.746094 L 212.277344 51.652344 C 213 49.84375 214.804688 48.761719 216.792969 48.761719 L 547.667969 48.761719 L 547.667969 5.054688 C 547.667969 2.34375 549.835938 -0.00390625 552.722656 -0.00390625 C 555.433594 -0.00390625 557.78125 2.164062 557.78125 5.054688 L 557.78125 836.394531 C 557.78125 839.105469 555.613281 841.453125 552.722656 841.453125 C 550.015625 841.453125 547.667969 839.285156 547.667969 836.394531 L 547.667969 792.507812 Z M 260.859375 602.507812 C 260.679688 604.855469 260.859375 607.023438 261.402344 609.371094 C 262.125 612.800781 263.75 616.050781 266.097656 618.941406 C 268.445312 621.832031 271.335938 624 274.585938 625.445312 C 276.753906 626.347656 278.921875 627.070312 281.089844 627.25 C 281.269531 624.902344 281.089844 622.734375 280.546875 620.386719 C 279.824219 616.957031 278.199219 613.703125 275.851562 610.816406 C 273.503906 607.925781 270.613281 605.757812 267.363281 604.3125 C 265.375 603.230469 263.207031 602.6875 260.859375 602.507812 Z M 244.785156 694.617188 C 244.246094 696.785156 244.0625 699.132812 244.246094 701.480469 C 246.414062 701.117188 248.761719 700.578125 250.746094 699.675781 C 253.996094 698.230469 256.886719 696.0625 259.234375 693.171875 C 261.582031 690.28125 263.207031 687.03125 263.929688 683.601562 C 264.472656 681.433594 264.652344 679.085938 264.472656 676.738281 C 262.304688 677.097656 259.957031 677.640625 257.972656 678.542969 C 254.71875 679.988281 251.832031 682.15625 249.484375 685.042969 C 246.953125 687.933594 245.507812 691.183594 244.785156 694.617188 Z M 331.296875 677.277344 L 382.589844 663.550781 L 382.589844 633.210938 L 331.296875 619.484375 Z M 467.476562 643.324219 L 467.476562 566.386719 L 392.523438 566.386719 L 392.523438 643.324219 Z M 467.476562 730.195312 L 467.476562 653.257812 L 392.523438 653.257812 L 392.523438 730.195312 Z M 509.921875 730.195312 L 509.921875 566.203125 L 477.410156 566.203125 L 477.410156 730.195312 Z M 520.035156 609.007812 L 547.667969 593.113281 L 547.667969 586.792969 L 520.035156 594.199219 Z M 520.035156 675.832031 L 547.667969 691.726562 L 547.667969 604.675781 L 520.035156 620.566406 Z M 520.035156 702.382812 L 547.667969 709.789062 L 547.667969 703.46875 L 520.035156 687.574219 Z M 430.089844 439.054688 L 397.039062 439.054688 C 386.746094 439.054688 377.351562 443.210938 370.492188 450.074219 C 363.628906 456.9375 359.472656 466.148438 359.472656 476.621094 C 359.472656 486.917969 363.628906 496.308594 370.492188 503.171875 C 377.351562 510.035156 386.5625 514.1875 397.039062 514.1875 L 509.921875 514.1875 L 509.921875 111.070312 L 397.039062 111.070312 C 386.746094 111.070312 377.351562 115.226562 370.492188 122.089844 C 363.628906 128.953125 359.472656 138.164062 359.472656 148.636719 C 359.472656 158.933594 363.628906 168.324219 370.492188 175.1875 C 377.351562 182.050781 386.5625 186.203125 397.039062 186.203125 L 430.089844 186.203125 C 432.800781 186.203125 435.148438 188.371094 435.148438 191.261719 L 435.148438 434 C 434.96875 436.890625 432.800781 439.054688 430.089844 439.054688 Z M 397.039062 429.121094 L 425.035156 429.121094 L 425.035156 195.957031 L 397.039062 195.957031 C 383.855469 195.957031 372.117188 190.71875 363.445312 182.050781 C 356.042969 174.644531 350.984375 164.53125 349.71875 153.515625 L 318.65625 153.515625 C 303.484375 153.515625 289.757812 159.65625 279.824219 169.769531 C 269.890625 179.703125 263.570312 193.609375 263.570312 208.601562 L 263.570312 416.480469 C 263.570312 431.652344 269.710938 445.378906 279.824219 455.3125 C 289.757812 465.246094 303.484375 471.566406 318.65625 471.566406 L 349.71875 471.566406 C 350.804688 460.546875 355.859375 450.433594 363.445312 443.03125 C 372.117188 434.359375 383.855469 429.121094 397.039062 429.121094 Z M 520.035156 180.246094 L 547.667969 164.351562 L 547.667969 158.03125 L 520.035156 165.433594 Z M 520.035156 433.277344 L 547.667969 449.171875 L 547.667969 175.730469 L 520.035156 191.621094 Z M 520.035156 459.824219 L 547.667969 467.230469 L 547.667969 460.910156 L 520.035156 445.015625 Z M 422.867188 628.875 C 422.867188 624.902344 426.117188 621.652344 430.089844 621.652344 C 434.0625 621.652344 437.316406 624.902344 437.316406 628.875 C 437.316406 632.847656 434.0625 636.101562 430.089844 636.101562 C 426.117188 636.101562 422.867188 632.847656 422.867188 628.875 Z M 422.867188 667.527344 C 422.867188 663.550781 426.117188 660.300781 430.089844 660.300781 C 434.0625 660.300781 437.316406 663.550781 437.316406 667.527344 C 437.316406 671.5 434.0625 674.75 430.089844 674.75 C 426.117188 674.75 422.867188 671.5 422.867188 667.527344 Z M 486.621094 648.199219 C 486.621094 644.226562 489.871094 640.976562 493.847656 640.976562 C 497.820312 640.976562 501.070312 644.226562 501.070312 648.199219 C 501.070312 652.175781 497.820312 655.425781 493.847656 655.425781 C 489.871094 655.425781 486.621094 652.175781 486.621094 648.199219 Z M 125.585938 415.578125 C 126.488281 405.101562 129.917969 395.347656 135.339844 387.039062 C 141.839844 377.109375 151.050781 369.160156 162.066406 364.285156 C 164.597656 363.199219 167.488281 364.285156 168.570312 366.8125 C 168.929688 367.535156 168.929688 368.078125 168.929688 368.800781 L 168.929688 472.289062 C 168.929688 474.996094 166.765625 477.34375 163.875 477.34375 C 162.972656 477.34375 162.066406 477.164062 161.34375 476.621094 C 150.507812 471.746094 141.480469 463.800781 135.15625 454.046875 C 129.738281 445.738281 126.308594 435.984375 125.40625 425.511719 L 13.609375 425.511719 L 219.5 782.574219 L 547.488281 782.574219 L 547.488281 720.082031 L 519.851562 712.679688 L 519.851562 735.253906 C 519.851562 737.964844 517.6875 740.3125 514.796875 740.3125 L 387.46875 740.3125 C 384.757812 740.3125 382.410156 738.144531 382.410156 735.253906 L 382.410156 673.847656 L 327.324219 688.65625 C 324.617188 689.378906 321.90625 687.753906 321.183594 685.042969 C 321.003906 684.683594 321.003906 684.140625 321.003906 683.78125 L 321.003906 653.617188 C 312.335938 654.523438 304.207031 656.328125 296.621094 659.578125 C 288.492188 663.011719 280.910156 667.707031 274.046875 673.847656 C 274.585938 677.820312 274.40625 681.792969 273.503906 685.765625 C 272.421875 690.644531 270.070312 695.339844 266.820312 699.492188 C 263.390625 703.648438 259.234375 706.71875 254.71875 708.703125 C 250.023438 710.871094 244.785156 711.773438 239.730469 711.59375 L 235.9375 711.414062 L 235.035156 707.800781 C 233.769531 702.746094 233.769531 697.507812 234.851562 692.449219 C 235.9375 687.574219 238.285156 682.878906 241.535156 678.722656 C 244.96875 674.570312 249.121094 671.5 253.636719 669.511719 C 257.972656 667.527344 262.488281 666.621094 267.183594 666.621094 C 274.949219 659.578125 283.617188 654.160156 292.828125 650.367188 C 296.078125 648.921875 299.511719 647.839844 303.125 646.757812 L 302.582031 646.574219 C 296.984375 644.046875 291.746094 640.976562 286.6875 637.183594 L 285.242188 637.183594 C 280.1875 637.363281 274.949219 636.460938 270.253906 634.292969 C 265.738281 632.308594 261.582031 629.238281 258.152344 625.082031 C 254.71875 620.929688 252.554688 616.234375 251.46875 611.355469 C 250.386719 606.300781 250.386719 601.0625 251.648438 596.003906 L 252.554688 592.394531 L 256.347656 592.210938 C 261.402344 592.03125 266.640625 592.933594 271.335938 595.101562 C 275.851562 597.089844 280.003906 600.160156 283.4375 604.3125 C 286.867188 608.46875 289.035156 613.164062 290.121094 618.039062 C 290.84375 621.289062 291.023438 624.542969 290.84375 627.613281 C 295.898438 631.585938 301.136719 634.65625 306.734375 637.183594 C 311.25 639.171875 315.945312 640.796875 321.003906 642.058594 L 321.003906 612.621094 C 321.003906 609.910156 323.171875 607.5625 326.0625 607.5625 C 326.601562 607.5625 327.144531 607.746094 327.6875 607.746094 L 382.410156 622.375 L 382.410156 560.96875 C 382.410156 558.257812 384.578125 555.910156 387.46875 555.910156 L 514.796875 555.910156 C 517.503906 555.910156 519.851562 558.078125 519.851562 560.96875 L 519.851562 583.542969 L 547.488281 576.136719 L 547.488281 477.164062 L 519.851562 469.757812 L 519.851562 518.886719 C 519.851562 521.59375 517.6875 523.941406 514.796875 523.941406 L 396.859375 523.941406 C 383.675781 523.941406 371.933594 518.703125 363.265625 510.035156 C 355.859375 502.628906 350.804688 492.515625 349.539062 481.5 L 318.476562 481.5 C 300.59375 481.5 284.339844 474.09375 272.417969 462.355469 C 260.679688 450.613281 253.273438 434.359375 253.273438 416.300781 L 253.273438 208.417969 C 253.273438 190.539062 260.679688 174.285156 272.417969 162.363281 C 284.160156 150.625 300.414062 143.21875 318.476562 143.21875 L 349.539062 143.21875 C 350.625 132.203125 355.679688 122.089844 363.265625 114.683594 C 371.933594 106.015625 383.675781 100.777344 396.859375 100.777344 L 514.796875 100.777344 C 517.503906 100.777344 519.851562 102.945312 519.851562 105.832031 L 519.851562 154.960938 L 547.488281 147.554688 L 547.488281 58.695312 L 219.5 58.695312 L 13.609375 415.578125 Z M 125.585938 415.578125 " fill-opacity="1" fill-rule="nonzero"/></g><g clip-path="url(#51c9728539)"><g transform="matrix(1, 0, 0, 1, 579, 777)"><g clip-path="url(#df499168bc)"><g fill="#131b81" fill-opacity="1"><g transform="translate(12.026583, 64.4505)"><g><path d="M -10.046875 -0.734375 L -10.046875 -4.328125 C -10.046875 -5.296875 -9.785156 -6.082031 -9.265625 -6.6875 C -8.753906 -7.300781 -8.019531 -7.609375 -7.0625 -7.609375 C -6.320312 -7.609375 -5.703125 -7.421875 -5.203125 -7.046875 C -4.703125 -6.679688 -4.351562 -6.179688 -4.15625 -5.546875 L 0 -9 L 0 -6.09375 L -3.96875 -3.015625 L 0 -3.015625 L 0 -0.734375 Z M -5.59375 -3.015625 L -5.59375 -3.296875 C -5.59375 -3.503906 -5.597656 -3.679688 -5.609375 -3.828125 C -5.617188 -3.972656 -5.644531 -4.140625 -5.6875 -4.328125 C -5.738281 -4.515625 -5.804688 -4.664062 -5.890625 -4.78125 C -5.984375 -4.894531 -6.113281 -4.988281 -6.28125 -5.0625 C -6.457031 -5.144531 -6.664062 -5.1875 -6.90625 -5.1875 C -7.15625 -5.1875 -7.363281 -5.144531 -7.53125 -5.0625 C -7.695312 -4.988281 -7.828125 -4.894531 -7.921875 -4.78125 C -8.015625 -4.664062 -8.082031 -4.515625 -8.125 -4.328125 C -8.175781 -4.140625 -8.203125 -3.972656 -8.203125 -3.828125 C -8.210938 -3.679688 -8.21875 -3.503906 -8.21875 -3.296875 L -8.21875 -3.015625 Z M -5.59375 -3.015625 "/></g></g></g><g fill="#131b81" fill-opacity="1"><g transform="translate(12.026583, 56.624664)"><g><path d="M -0.734375 -1.3125 C -1.359375 -0.625 -2.148438 -0.28125 -3.109375 -0.28125 C -4.078125 -0.28125 -4.875 -0.640625 -5.5 -1.359375 C -6.125 -2.085938 -6.4375 -2.984375 -6.4375 -4.046875 C -6.4375 -5.097656 -6.125 -5.984375 -5.5 -6.703125 C -4.875 -7.421875 -4.082031 -7.78125 -3.125 -7.78125 C -2.164062 -7.78125 -1.375 -7.425781 -0.75 -6.71875 C -0.125 -6.019531 0.1875 -5.128906 0.1875 -4.046875 C 0.1875 -2.921875 -0.117188 -2.007812 -0.734375 -1.3125 Z M -4.171875 -2.984375 C -3.898438 -2.710938 -3.546875 -2.578125 -3.109375 -2.578125 C -2.679688 -2.578125 -2.332031 -2.707031 -2.0625 -2.96875 C -1.789062 -3.238281 -1.65625 -3.59375 -1.65625 -4.03125 C -1.65625 -4.457031 -1.789062 -4.804688 -2.0625 -5.078125 C -2.34375 -5.347656 -2.695312 -5.484375 -3.125 -5.484375 C -3.550781 -5.484375 -3.898438 -5.34375 -4.171875 -5.0625 C -4.453125 -4.78125 -4.59375 -4.4375 -4.59375 -4.03125 C -4.59375 -3.613281 -4.453125 -3.265625 -4.171875 -2.984375 Z M -4.171875 -2.984375 "/></g></g></g><g fill="#131b81" fill-opacity="1"><g transform="translate(12.026583, 49.176712)"><g><path d="M -0.734375 -1.3125 C -1.359375 -0.625 -2.148438 -0.28125 -3.109375 -0.28125 C -4.078125 -0.28125 -4.875 -0.640625 -5.5 -1.359375 C -6.125 -2.085938 -6.4375 -2.984375 -6.4375 -4.046875 C -6.4375 -5.097656 -6.125 -5.984375 -5.5 -6.703125 C -4.875 -7.421875 -4.082031 -7.78125 -3.125 -7.78125 C -2.164062 -7.78125 -1.375 -7.425781 -0.75 -6.71875 C -0.125 -6.019531 0.1875 -5.128906 0.1875 -4.046875 C 0.1875 -2.921875 -0.117188 -2.007812 -0.734375 -1.3125 Z M -4.171875 -2.984375 C -3.898438 -2.710938 -3.546875 -2.578125 -3.109375 -2.578125 C -2.679688 -2.578125 -2.332031 -2.707031 -2.0625 -2.96875 C -1.789062 -3.238281 -1.65625 -3.59375 -1.65625 -4.03125 C -1.65625 -4.457031 -1.789062 -4.804688 -2.0625 -5.078125 C -2.34375 -5.347656 -2.695312 -5.484375 -3.125 -5.484375 C -3.550781 -5.484375 -3.898438 -5.34375 -4.171875 -5.0625 C -4.453125 -4.78125 -4.59375 -4.4375 -4.59375 -4.03125 C -4.59375 -3.613281 -4.453125 -3.265625 -4.171875 -2.984375 Z M -4.171875 -2.984375 "/></g></g></g><g fill="#131b81" fill-opacity="1"><g transform="translate(12.026583, 41.753138)"><g><path d="M 0 -0.734375 L -6.25 -0.734375 L -6.25 -2.890625 L -5.59375 -2.890625 L -5.59375 -2.90625 C -6.15625 -3.46875 -6.4375 -4.066406 -6.4375 -4.703125 C -6.4375 -5.160156 -6.34375 -5.585938 -6.15625 -5.984375 C -5.96875 -6.378906 -5.679688 -6.679688 -5.296875 -6.890625 C -6.054688 -7.523438 -6.4375 -8.210938 -6.4375 -8.953125 C -6.4375 -9.617188 -6.25 -10.191406 -5.875 -10.671875 C -5.5 -11.148438 -4.914062 -11.390625 -4.125 -11.390625 L 0 -11.390625 L 0 -9.234375 L -3.53125 -9.234375 C -3.863281 -9.234375 -4.140625 -9.140625 -4.359375 -8.953125 C -4.585938 -8.773438 -4.703125 -8.503906 -4.703125 -8.140625 C -4.703125 -7.828125 -4.601562 -7.585938 -4.40625 -7.421875 C -4.21875 -7.253906 -3.992188 -7.160156 -3.734375 -7.140625 L 0 -7.140625 L 0 -4.984375 L -3.53125 -4.984375 C -3.863281 -4.984375 -4.140625 -4.890625 -4.359375 -4.703125 C -4.585938 -4.523438 -4.703125 -4.253906 -4.703125 -3.890625 C -4.703125 -3.554688 -4.597656 -3.304688 -4.390625 -3.140625 C -4.179688 -2.972656 -3.9375 -2.890625 -3.65625 -2.890625 L 0 -2.890625 Z M 0 -0.734375 "/></g></g></g><g fill="#131b81" fill-opacity="1"><g transform="translate(12.026583, 30.3557)"><g><path d="M -10.234375 -4.4375 C -10.234375 -4.976562 -10.15625 -5.507812 -10 -6.03125 C -9.84375 -6.550781 -9.6875 -6.9375 -9.53125 -7.1875 L -9.28125 -7.5625 L -7.453125 -6.625 C -7.503906 -6.550781 -7.566406 -6.445312 -7.640625 -6.3125 C -7.722656 -6.1875 -7.828125 -5.945312 -7.953125 -5.59375 C -8.085938 -5.238281 -8.15625 -4.90625 -8.15625 -4.59375 C -8.15625 -4.207031 -8.070312 -3.910156 -7.90625 -3.703125 C -7.75 -3.503906 -7.53125 -3.40625 -7.25 -3.40625 C -7.113281 -3.40625 -6.984375 -3.453125 -6.859375 -3.546875 C -6.742188 -3.640625 -6.617188 -3.804688 -6.484375 -4.046875 C -6.347656 -4.285156 -6.238281 -4.492188 -6.15625 -4.671875 C -6.082031 -4.847656 -5.960938 -5.125 -5.796875 -5.5 C -5.523438 -6.144531 -5.148438 -6.695312 -4.671875 -7.15625 C -4.191406 -7.613281 -3.65625 -7.84375 -3.0625 -7.84375 C -2.476562 -7.84375 -1.972656 -7.738281 -1.546875 -7.53125 C -1.117188 -7.332031 -0.78125 -7.050781 -0.53125 -6.6875 C -0.289062 -6.320312 -0.113281 -5.921875 0 -5.484375 C 0.125 -5.046875 0.1875 -4.570312 0.1875 -4.0625 C 0.1875 -3.625 0.140625 -3.191406 0.046875 -2.765625 C -0.0351562 -2.335938 -0.144531 -1.984375 -0.28125 -1.703125 C -0.414062 -1.421875 -0.546875 -1.164062 -0.671875 -0.9375 C -0.804688 -0.707031 -0.921875 -0.539062 -1.015625 -0.4375 L -1.140625 -0.28125 L -3.078125 -1.421875 C -2.992188 -1.523438 -2.890625 -1.660156 -2.765625 -1.828125 C -2.640625 -1.992188 -2.46875 -2.296875 -2.25 -2.734375 C -2.039062 -3.171875 -1.9375 -3.554688 -1.9375 -3.890625 C -1.9375 -4.859375 -2.265625 -5.34375 -2.921875 -5.34375 C -3.054688 -5.34375 -3.179688 -5.304688 -3.296875 -5.234375 C -3.421875 -5.160156 -3.539062 -5.035156 -3.65625 -4.859375 C -3.78125 -4.691406 -3.875 -4.539062 -3.9375 -4.40625 C -4.007812 -4.269531 -4.113281 -4.050781 -4.25 -3.75 C -4.394531 -3.445312 -4.503906 -3.222656 -4.578125 -3.078125 C -4.878906 -2.460938 -5.253906 -1.988281 -5.703125 -1.65625 C -6.160156 -1.320312 -6.648438 -1.15625 -7.171875 -1.15625 C -8.066406 -1.15625 -8.800781 -1.488281 -9.375 -2.15625 C -9.945312 -2.820312 -10.234375 -3.582031 -10.234375 -4.4375 Z M -10.234375 -4.4375 "/></g></g></g><g fill="#131b81" fill-opacity="1"><g transform="translate(12.026583, 22.773659)"><g><path d="M -0.765625 -1.15625 C -1.410156 -0.570312 -2.195312 -0.28125 -3.125 -0.28125 C -4.050781 -0.28125 -4.832031 -0.570312 -5.46875 -1.15625 C -6.113281 -1.738281 -6.4375 -2.484375 -6.4375 -3.390625 C -6.4375 -4.210938 -6.175781 -4.894531 -5.65625 -5.4375 L -6.25 -5.4375 L -6.25 -7.59375 L 0 -7.59375 L 0 -5.453125 L -0.703125 -5.453125 L -0.703125 -5.4375 C -0.109375 -4.894531 0.1875 -4.210938 0.1875 -3.390625 C 0.1875 -2.484375 -0.128906 -1.738281 -0.765625 -1.15625 Z M -4.171875 -2.984375 C -3.898438 -2.710938 -3.546875 -2.578125 -3.109375 -2.578125 C -2.679688 -2.578125 -2.332031 -2.707031 -2.0625 -2.96875 C -1.789062 -3.238281 -1.65625 -3.59375 -1.65625 -4.03125 C -1.65625 -4.457031 -1.789062 -4.804688 -2.0625 -5.078125 C -2.34375 -5.347656 -2.695312 -5.484375 -3.125 -5.484375 C -3.550781 -5.484375 -3.898438 -5.34375 -4.171875 -5.0625 C -4.453125 -4.78125 -4.59375 -4.4375 -4.59375 -4.03125 C -4.59375 -3.613281 -4.453125 -3.265625 -4.171875 -2.984375 Z M -4.171875 -2.984375 "/></g></g></g><g fill="#131b81" fill-opacity="1"><g transform="translate(12.026583, 15.14286)"><g><path d="M -6.25 -1.09375 L -8.578125 -1.09375 L -8.578125 -3.25 L -6.25 -3.25 L -6.25 -4.5625 L -4.609375 -4.5625 L -4.609375 -3.25 L -2.625 -3.25 C -2.039062 -3.25 -1.75 -3.410156 -1.75 -3.734375 C -1.75 -3.816406 -1.765625 -3.898438 -1.796875 -3.984375 C -1.835938 -4.078125 -1.875 -4.148438 -1.90625 -4.203125 L -1.953125 -4.28125 L -0.203125 -4.8125 C 0.0546875 -4.351562 0.1875 -3.828125 0.1875 -3.234375 C 0.1875 -2.828125 0.113281 -2.476562 -0.03125 -2.1875 C -0.175781 -1.894531 -0.367188 -1.671875 -0.609375 -1.515625 C -0.847656 -1.367188 -1.097656 -1.257812 -1.359375 -1.1875 C -1.617188 -1.125 -1.898438 -1.09375 -2.203125 -1.09375 L -4.609375 -1.09375 L -4.609375 -0.1875 L -6.25 -0.1875 Z M -6.25 -1.09375 "/></g></g></g><g fill="#131b81" fill-opacity="1"><g transform="translate(12.026583, 10.937387)"><g><path d="M 0 -0.734375 L -10.484375 -0.734375 L -10.484375 -2.890625 L -5.59375 -2.890625 L -5.59375 -2.90625 C -6.15625 -3.46875 -6.4375 -4.066406 -6.4375 -4.703125 C -6.4375 -5.015625 -6.394531 -5.320312 -6.3125 -5.625 C -6.226562 -5.925781 -6.097656 -6.21875 -5.921875 -6.5 C -5.753906 -6.78125 -5.515625 -7.007812 -5.203125 -7.1875 C -4.890625 -7.363281 -4.53125 -7.453125 -4.125 -7.453125 L 0 -7.453125 L 0 -5.296875 L -3.53125 -5.296875 C -3.851562 -5.296875 -4.132812 -5.191406 -4.375 -4.984375 C -4.625 -4.773438 -4.75 -4.503906 -4.75 -4.171875 C -4.75 -3.847656 -4.625 -3.550781 -4.375 -3.28125 C -4.125 -3.019531 -3.84375 -2.890625 -3.53125 -2.890625 L 0 -2.890625 Z M 0 -0.734375 "/></g></g></g><g clip-path="url(#45254950c5)"><g fill="#131b81" fill-opacity="1"><g transform="translate(12.026583, 3.489432)"><g><path d="M -9.734375 -0.9375 C -9.984375 -1.1875 -10.109375 -1.484375 -10.109375 -1.828125 C -10.109375 -2.179688 -9.984375 -2.484375 -9.734375 -2.734375 C -9.484375 -2.992188 -9.179688 -3.125 -8.828125 -3.125 C -8.484375 -3.125 -8.1875 -2.992188 -7.9375 -2.734375 C -7.6875 -2.484375 -7.5625 -2.179688 -7.5625 -1.828125 C -7.5625 -1.484375 -7.6875 -1.1875 -7.9375 -0.9375 C -8.1875 -0.6875 -8.484375 -0.5625 -8.828125 -0.5625 C -9.179688 -0.5625 -9.484375 -0.6875 -9.734375 -0.9375 Z M -6.25 -0.734375 L 0 -0.734375 L 0 -2.890625 L -6.25 -2.890625 Z M -6.25 -0.734375 "/></g></g></g></g></g></g></g></g></g></g></svg>